<svg xmlns="http://www.w3.org/2000/svg" viewBox="0 0 785 767" style="shape-rendering:geometricPrecision;text-rendering:geometricPrecision;image-rendering:optimizeQuality;fill-rule:evenodd;clip-rule:evenodd" height="97.504" width="99.78" xml:space="preserve"><path style="fill:none;stroke:#fefefe;stroke-width:14.8639" d="M363 144h366l43 76H339l24-76zm0 76 36 271 213 84 79-6 38-349m-84-76L671 7h37l-28 137h-35zM35 352l577 223h119l-45 184H438l-51-113-74 110H57L10 582h124L8 538l27-186zm39 56L61 520l146 55 79-88-212-79zm-6 209 29 108h165l29-112H68m381 6 29 108h166l30-112H449m-315-33 478-7m-328 5 48-62 49 29 6 31m47 0-4-40 88 38"/></svg>