<svg xmlns="http://www.w3.org/2000/svg" xml:space="preserve" width="32" height="32.001" viewBox="0 0 455.83 455.85" shape-rendering="geometricPrecision" text-rendering="geometricPrecision" image-rendering="optimizeQuality" fill-rule="evenodd" clip-rule="evenodd">
    <defs>
        <!-- <style>.fil0{fill:#000;fill-rule:nonzero}</style> -->
    </defs>
    <g id="Слой_x0020_1">
        <path d="M436.78 128.27c-39.53-5.69-81.64-9.8-125.57-12.12l73.4-73.4-28.49-28.49-99.96 99.96c-9.35-.16-18.76-.24-28.25-.24L113.95.02 85.46 28.51l86.45 86.45c-53.83 1.9-105.21 6.47-152.86 13.32C6.8 176.23-.01 229.22-.01 284.93c0 55.71 6.79 108.69 19.06 156.65 63.94 9.19 134.59 14.29 208.86 14.29 74.27 0 144.91-5.1 208.86-14.29 12.25-47.95 19.06-100.94 19.06-156.65 0-55.71-6.79-108.69-19.06-156.65h.01z"/>
        <!-- <path d="M436.78 128.27c-39.53-5.69-81.64-9.8-125.57-12.12l73.4-73.4-28.49-28.49-99.96 99.96c-9.35-.16-18.76-.24-28.25-.24L113.95.02 85.46 28.51l86.45 86.45c-53.83 1.9-105.21 6.47-152.86 13.32C6.8 176.23-.01 229.22-.01 284.93c0 55.71 6.79 108.69 19.06 156.65 63.94 9.19 134.59 14.29 208.86 14.29 74.27 0 144.91-5.1 208.86-14.29 12.25-47.95 19.06-100.94 19.06-156.65 0-55.71-6.79-108.69-19.06-156.65h.01zm-52.21 261.08c-47.97 6.13-100.94 9.53-156.65 9.53-55.71 0-108.69-3.4-156.65-9.53-9.19-31.96-14.29-67.29-14.29-104.43s5.1-72.46 14.29-104.43c47.95-6.13 100.94-9.53 156.65-9.53 55.71 0 108.69 3.4 156.64 9.53 9.19 31.96 14.3 67.29 14.3 104.43s-5.1 72.46-14.29 104.43z"/> -->
    </g>
</svg>